<svg width="97" height="97" viewBox="0 0 97 97" fill="none" xmlns="http://www.w3.org/2000/svg">
<path d="M0 25.5316C0 24.572 0 23.6376 0 22.6779C0.0757615 22.5769 0.151523 22.4759 0.202031 22.3749C1.06066 19.9758 2.90419 18.6373 5.32856 18.7131C7.5509 18.7636 9.39443 20.2788 10.0763 22.6274C10.4551 23.8901 10.7834 25.1781 11.1369 26.4408C13.4855 35.0523 15.8342 43.6891 18.1828 52.3007C18.2585 52.6037 18.4606 53.0331 18.6878 53.0836C19.0161 53.1593 19.597 53.0583 19.7738 52.8058C20.6829 51.5683 21.8446 50.735 23.284 50.2299C22.88 46.164 22.4759 42.1487 22.0971 38.1333C22.0466 37.6282 21.7941 37.5019 21.3142 37.4262C19.8495 37.1989 18.8141 35.9362 18.7636 34.4462C18.7383 33.3856 18.7383 32.2997 18.7636 31.239C18.7889 29.648 19.8243 28.4106 21.4153 28.158C21.9708 28.0823 22.2234 27.8802 22.3496 27.3499C23.3345 23.5113 25.7084 20.8849 29.2945 19.2687C29.648 19.1172 30.0016 18.6878 30.1278 18.309C31.037 15.3038 32.83 13.0815 35.5574 11.5915C35.9615 11.3642 36.315 10.9602 36.4918 10.5309C37.8808 7.2226 40.2294 4.89924 43.5629 3.58605C43.8154 3.48503 44.169 3.40927 44.2952 3.20724C45.3054 1.51523 46.8964 0.631346 48.6641 0C49.548 0 50.4319 0 51.3158 0C54.0685 0.732361 55.7352 2.6264 56.7706 5.17704C56.8464 5.37907 56.9221 5.60635 57.0737 5.75787C57.402 6.11143 57.7303 6.54074 58.1343 6.69227C61.4426 8.05597 63.8165 10.3541 65.1802 13.6876C65.3317 14.0411 65.6852 14.3947 66.0388 14.5462C67.6803 15.2786 69.1198 16.2382 70.3319 17.5767C70.5087 17.7787 70.6097 18.0565 70.7613 18.2838C71.6704 14.521 72.327 10.9854 72.9583 7.42463C73.4634 4.62145 75.2564 3.05571 78.1101 3.05571C82.7063 3.05571 87.3278 3.05571 91.924 3.05571C93.2624 3.05571 94.5504 3.33351 95.4595 4.34366C96.0909 5.05077 96.4949 5.95991 97 6.79328C97 8.51054 97 10.2026 97 11.9198C96.1161 14.4957 94.3231 15.7836 91.5704 15.6826C90.3835 15.6574 89.1713 15.6826 87.9844 15.6826C85.7115 15.6826 83.4387 15.6826 81.1153 15.6826C78.1859 31.3148 75.2564 46.8711 72.327 62.5033C73.2614 62.5033 74.0443 62.5033 74.8271 62.5033C76.9232 62.5285 78.2364 63.8417 78.2364 65.9378C78.2364 69.6501 78.2364 73.3876 78.2364 77.1C78.2364 77.4283 78.2364 77.7818 78.2364 78.1859C81.3426 78.1859 84.3478 78.1859 87.3278 78.1859C89.4996 78.1859 90.737 79.4233 90.737 81.5699C90.737 85.358 90.6613 89.146 90.7623 92.9341C90.8128 94.8282 90.2067 96.1666 88.4642 96.9495C62.781 96.9495 37.0726 96.9495 11.3642 96.9495C8.56105 96.0151 7.50039 93.9443 7.57615 91.1158C7.60141 89.9542 7.47514 88.7925 7.42463 87.6056C7.09633 79.9537 6.76803 72.2765 6.41447 64.6246C6.38922 63.9427 6.28821 63.2609 6.2377 62.6295C4.11638 62.0992 3.18198 61.1901 3.08097 59.4223C3.03046 58.3616 3.00521 57.2757 3.08097 56.215C3.20724 54.3715 4.44468 53.2351 6.28821 53.1593C6.59125 53.1593 6.86904 53.1088 7.2226 53.0836C7.17209 52.7553 7.14684 52.5532 7.09633 52.3512C5.5811 46.5933 4.09112 40.8607 2.55064 35.1028C1.74251 31.8956 0.858631 28.7136 0 25.5316ZM25.2286 37.5272C25.3549 38.7646 25.4559 39.9011 25.5569 41.0375C25.8347 43.7902 26.1125 46.5428 26.365 49.3207C26.4155 49.9268 26.7186 50.1794 27.2489 50.4572C28.2338 50.9875 29.1429 51.6946 29.9258 52.4775C30.3804 52.932 30.7339 53.1593 31.34 53.1593C35.4059 53.1341 39.4717 53.1341 43.5376 53.1593C45.2801 53.1593 46.5681 53.9927 46.7701 55.5837C46.9721 57.0737 46.9721 58.6142 46.7701 60.1041C46.5681 61.6951 45.3054 62.4275 43.6891 62.6295C43.4619 67.8066 43.2093 72.9583 42.982 78.1354C45.3306 78.1354 47.6035 78.1354 49.9521 78.1354C49.9521 77.7566 49.9521 77.403 49.9521 77.0747C49.9521 73.7412 50.0784 70.3824 49.9268 67.0489C49.7753 63.5639 51.4168 62.3012 54.4473 62.478C56.8716 62.6043 59.296 62.5033 61.7456 62.5033C62.0739 62.5033 62.4275 62.5033 62.7558 62.5033C64.2963 54.119 65.8115 45.861 67.352 37.5777C53.3109 37.5272 39.3202 37.5272 25.2286 37.5272ZM40.5577 62.5538C40.0778 62.5538 39.7243 62.5538 39.3455 62.5538C35.5827 62.5538 31.8451 62.5538 28.0823 62.5538C26.5165 62.5538 26.5165 62.5538 26.264 64.0942C24.6983 73.716 20.2283 81.6709 12.5259 87.6813C11.1117 88.7925 10.5309 89.8279 10.7329 91.5704C10.9349 93.2877 11.238 93.7675 12.9552 93.7675C20.7839 93.7675 28.6126 93.7675 36.4413 93.7675C36.7696 93.7675 37.0979 93.7675 37.5019 93.7675C37.5019 93.2877 37.5019 92.9341 37.5019 92.6058C37.5019 88.9188 37.5019 85.2317 37.5019 81.5194C37.5019 80.2567 37.9565 79.196 39.1182 78.6404C39.7495 78.3374 39.9011 77.9333 39.9263 77.3272C40.0526 73.9432 40.2041 70.5845 40.3556 67.2005C40.4314 65.66 40.4819 64.17 40.5577 62.5538ZM25.4306 28.0065C40.1031 28.0065 54.5988 28.0065 69.145 28.0065C69.347 26.8448 69.4986 25.7337 69.7764 24.6225C70.0289 23.6376 69.8774 22.7537 69.4481 21.8698C68.2864 19.496 66.4934 17.8545 63.9427 17.1979C63.0336 16.9706 62.7053 16.5413 62.478 15.6826C61.7456 12.9805 60.1041 10.7834 57.4777 9.8995C55.4574 9.2429 54.4725 8.00547 53.7907 6.2377C53.6897 5.93465 53.5129 5.68211 53.3866 5.37907C52.73 3.99011 51.7451 3.10622 50.1036 3.08097C48.4874 3.05571 47.4772 3.91435 46.7701 5.30331C46.5933 5.63161 46.265 5.98516 45.9367 6.08617C42.2497 7.07107 39.9768 9.41968 38.9919 13.1067C38.9162 13.3593 38.6889 13.6876 38.4616 13.7633C35.2038 14.824 33.4361 17.1221 32.9058 20.4051C32.7542 21.3395 32.2492 21.6425 31.4158 21.8951C28.3601 22.8042 26.4408 24.8498 25.4306 28.0065ZM53.2351 78.0849C60.5335 78.0849 67.7561 78.0849 74.9786 78.0849C74.9786 73.9432 74.9786 69.8521 74.9786 65.7357C67.7055 65.7357 60.4577 65.7357 53.2351 65.7357C53.2351 69.9026 53.2351 73.9685 53.2351 78.0849ZM40.7597 81.3679C40.7597 85.5095 40.7597 89.5754 40.7597 93.6665C48.0328 93.6665 55.2301 93.6665 62.4275 93.6665C62.4275 89.5249 62.4275 85.4337 62.4275 81.3679C55.1796 81.3679 48.0075 81.3679 40.7597 81.3679ZM87.5045 81.3931C80.2062 81.3931 72.9836 81.3931 65.7862 81.3931C65.7862 85.5347 65.7862 89.5754 65.7862 93.6917C73.0594 93.6917 80.2567 93.6917 87.5045 93.6917C87.5045 89.5754 87.5045 85.5095 87.5045 81.3931ZM9.49544 62.6043C9.849 70.1552 10.1773 77.6303 10.5309 85.3075C17.8797 79.3223 22.0466 71.8219 23.284 62.6043C18.6373 62.6043 14.1169 62.6043 9.49544 62.6043ZM68.5642 31.2895C52.9826 31.2895 37.5019 31.2895 22.0213 31.2895C22.0213 32.3249 22.0213 33.2846 22.0213 34.2695C37.3757 34.2695 52.6543 34.2695 68.0086 34.2695C68.1854 33.2593 68.3621 32.3249 68.5642 31.2895ZM74.6503 15.6826C71.7714 31.2643 68.9177 46.8206 66.0388 62.4022C67.1247 62.4022 68.0844 62.4022 69.0692 62.4022C71.9987 46.8206 74.9029 31.2643 77.8323 15.6826C76.7717 15.6826 75.7868 15.6826 74.6503 15.6826ZM15.0765 53.1088C15.0008 52.73 14.9503 52.4522 14.8745 52.1997C12.7532 44.371 10.6066 36.5423 8.48529 28.7136C8.00547 26.9206 7.52564 25.1276 6.99531 23.3598C6.69227 22.3244 5.88414 21.8193 4.84874 21.9203C3.91435 22.0213 3.23249 22.7537 3.20724 23.7891C3.20724 24.37 3.23249 25.0013 3.38401 25.5569C5.17704 32.4764 6.99531 39.3707 8.81359 46.265C9.41968 48.5379 10.0258 50.8107 10.6066 53.1088C12.0966 53.1088 13.5108 53.1088 15.0765 53.1088ZM75.2564 12.4501C81.0143 12.4501 86.6712 12.4754 92.3028 12.4249C93.2119 12.4249 93.7422 11.7935 93.7675 10.8844C93.7928 9.87425 93.7928 8.8641 93.7675 7.85394C93.7422 6.79328 93.1867 6.18719 92.126 6.18719C87.353 6.16194 82.6053 6.16194 77.8323 6.18719C77.0747 6.18719 76.4181 6.51549 76.2413 7.27311C75.8625 8.96511 75.5847 10.6571 75.2564 12.4501ZM6.28821 59.3213C10.7329 59.3213 15.0765 59.3213 19.4455 59.3213C19.1677 58.3111 18.8899 57.3515 18.6121 56.3413C14.5715 56.3413 10.4551 56.3413 6.28821 56.3413C6.28821 57.3262 6.28821 58.2859 6.28821 59.3213ZM43.7396 56.3413C39.5475 56.3413 35.4311 56.3413 31.441 56.3413C31.1632 57.402 30.9107 58.3616 30.6582 59.296C35.0271 59.296 39.3707 59.296 43.7649 59.296C43.7396 58.2859 43.7396 57.3515 43.7396 56.3413ZM21.9456 56.2403C21.9456 57.9828 23.3345 59.397 25.0518 59.3718C26.7438 59.3465 28.0823 57.9828 28.1075 56.2656C28.1075 54.523 26.7438 53.1341 25.0013 53.1593C23.284 53.1846 21.9456 54.523 21.9456 56.2403Z" fill="#4682B4"/>
</svg>
