<svg width="15" height="13" viewBox="0 0 15 13" fill="none" xmlns="http://www.w3.org/2000/svg">
<path d="M6.68869 1.34285L1.53383 10.2487C1.45135 10.3912 1.40785 10.5529 1.40772 10.7175C1.40758 10.8822 1.45081 11.044 1.53306 11.1866C1.61531 11.3292 1.73367 11.4477 1.87624 11.5301C2.01881 11.6124 2.18056 11.6558 2.34522 11.6558H12.6549C12.8196 11.6558 12.9813 11.6124 13.1239 11.5301C13.2665 11.4477 13.3848 11.3292 13.4671 11.1866C13.5493 11.044 13.5926 10.8822 13.5924 10.7175C13.5923 10.5529 13.5488 10.3912 13.4663 10.2487L8.31146 1.34285C8.2291 1.20058 8.11079 1.08246 7.96838 1.00034C7.82597 0.918226 7.66446 0.875 7.50007 0.875C7.33568 0.875 7.17418 0.918226 7.03177 1.00034C6.88936 1.08246 6.77105 1.20058 6.68869 1.34285V1.34285Z" stroke="#EB5757" stroke-linecap="round" stroke-linejoin="round"/>
</svg>
