<svg width="18" height="13" viewBox="0 0 18 13" fill="none" xmlns="http://www.w3.org/2000/svg">
<path d="M0.245129 6.78529L5.60163 12.1418C5.92845 12.4686 6.45847 12.4686 6.78529 12.1418C7.11217 11.8149 7.11217 11.285 6.78529 10.9581L2.85756 7.03042L17.163 7.03042C17.6252 7.03042 18 6.65566 18 6.19346C18 5.73133 17.6252 5.35651 17.163 5.35651L2.85756 5.35651L6.78515 1.42879C7.11203 1.10191 7.11203 0.572014 6.78515 0.245134C6.62178 0.0818277 6.40752 7.19868e-06 6.19333 7.19868e-06C5.97913 7.19868e-06 5.76494 0.0818277 5.6015 0.245134L0.245129 5.60164C-0.0817525 5.92852 -0.0817525 6.45841 0.245129 6.78529Z" fill="#4682B4"/>
</svg>
