<svg width="22" height="24" viewBox="0 0 22 24" fill="none" xmlns="http://www.w3.org/2000/svg">
<path d="M7.33333 10.8V13.2H4.88889V10.8H7.33333ZM12.2222 10.8V13.2H9.77778V10.8H12.2222ZM17.1111 10.8V13.2H14.6667V10.8H17.1111ZM19.5556 2.4C20.2039 2.4 20.8256 2.65286 21.284 3.10294C21.7425 3.55303 22 4.16348 22 4.8V21.6C22 22.2365 21.7425 22.847 21.284 23.2971C20.8256 23.7471 20.2039 24 19.5556 24H2.44444C1.79614 24 1.17438 23.7471 0.715961 23.2971C0.257539 22.847 0 22.2365 0 21.6V4.8C0 4.16348 0.257539 3.55303 0.715961 3.10294C1.17438 2.65286 1.79614 2.4 2.44444 2.4H3.66667V0H6.11111V2.4H15.8889V0H18.3333V2.4H19.5556ZM19.5556 21.6V8.4H2.44444V21.6H19.5556ZM7.33333 15.6V18H4.88889V15.6H7.33333ZM12.2222 15.6V18H9.77778V15.6H12.2222ZM17.1111 15.6V18H14.6667V15.6H17.1111Z" fill="#C4C4C4"/>
</svg>
