<svg width="43" height="41" viewBox="0 0 43 41" fill="none" xmlns="http://www.w3.org/2000/svg">
<path fill-rule="evenodd" clip-rule="evenodd" d="M20.5515 20.9294L38.7 2.67184C39.6802 1.6858 41.2611 1.6858 42.2412 2.67184C43.2214 3.65787 43.2214 5.24825 42.2412 6.23429L22.3221 26.2731C21.3419 27.2591 19.7611 27.2591 18.7809 26.2731L13.0581 20.5159C12.078 19.5299 12.078 17.9395 13.0581 16.9535C14.0383 15.9674 15.6191 15.9674 16.5993 16.9535L20.5515 20.9294Z" fill="#2CBC63"/>
<path fill-rule="evenodd" clip-rule="evenodd" d="M38.6684 17.8759C40.0279 17.8759 41.1662 18.9891 41.1662 20.3887V20.4523V33.5252C41.1662 37.6602 37.8147 41.0318 33.7044 41.0318H7.46176C3.35147 41.0318 0 37.6602 0 33.5252V7.50659C0 3.37161 3.35147 0 7.46176 0H28.4875C28.5191 0 28.5507 0 28.5824 0C29.9419 0 31.0801 1.11327 31.0801 2.5128C31.0801 3.91233 29.9735 5.0256 28.5824 5.0256C28.5507 5.0256 28.5191 5.0256 28.4875 5.0256H7.46176C6.07059 5.0256 4.96397 6.17067 4.96397 7.5384V33.4934C4.96397 34.8929 6.10221 36.0062 7.46176 36.0062H33.6728C35.064 36.0062 36.1706 34.8611 36.1706 33.4934V20.4205V20.3569C36.2022 18.9891 37.3088 17.8759 38.6684 17.8759Z" fill="#2CBC63"/>
</svg>
