<svg width="69" height="65" viewBox="0 0 69 65" fill="none" xmlns="http://www.w3.org/2000/svg">
<g clip-path="url(#clip0_230_1017)">
<path fill-rule="evenodd" clip-rule="evenodd" d="M32.978 33.1807L62.1001 4.23577C63.6729 2.67255 66.2097 2.67255 67.7825 4.23577C69.3553 5.799 69.3553 8.32034 67.7825 9.88356L35.8192 41.6524C34.2464 43.2156 31.7097 43.2156 30.1369 41.6524L20.9538 32.5251C19.381 30.9619 19.381 28.4406 20.9538 26.8774C22.5266 25.3141 25.0633 25.3141 26.6361 26.8774L32.978 33.1807Z" fill="#2CBC63"/>
<path fill-rule="evenodd" clip-rule="evenodd" d="M62.0493 28.3398C64.2309 28.3398 66.0574 30.1047 66.0574 32.3235V32.4244V53.1497C66.0574 59.7052 60.6794 65.0504 54.0838 65.0504H11.9735C5.37794 65.0504 0 59.7052 0 53.1497V11.9007C0 5.34523 5.37794 0 11.9735 0H45.7125C45.7632 0 45.814 0 45.8647 0C48.0463 0 49.8728 1.76493 49.8728 3.98371C49.8728 6.20248 48.0971 7.96742 45.8647 7.96742C45.814 7.96742 45.7632 7.96742 45.7125 7.96742H11.9735C9.74118 7.96742 7.96544 9.78278 7.96544 11.9511V53.0993C7.96544 55.3181 9.79191 57.083 11.9735 57.083H54.0331C56.2654 57.083 58.0412 55.2677 58.0412 53.0993V32.3739V32.2731C58.0919 30.1047 59.8676 28.3398 62.0493 28.3398Z" fill="#4682B4"/>
</g>
<defs>
<clipPath id="clip0_230_1017">
<rect width="69" height="65" fill="white"/>
</clipPath>
</defs>
</svg>
