<svg width="11" height="14" viewBox="0 0 11 14" fill="none" xmlns="http://www.w3.org/2000/svg">
<path d="M1.60074 13.98H9.64074C9.99613 13.98 10.337 13.8388 10.5883 13.5875C10.8396 13.3362 10.9807 12.9954 10.9807 12.64V4.60002L6.96074 0.580017H1.60074C1.24535 0.580017 0.904518 0.721195 0.653219 0.972494C0.40192 1.22379 0.260742 1.56463 0.260742 1.92002V12.64C0.260742 12.9954 0.40192 13.3362 0.653219 13.5875C0.904518 13.8388 1.24535 13.98 1.60074 13.98ZM6.29074 1.92002L9.64074 5.27002H6.29074V1.92002ZM3.27574 6.61002C3.40776 6.61006 3.53849 6.63611 3.66044 6.68667C3.7824 6.73724 3.8932 6.81132 3.98652 6.90471C4.07985 6.99809 4.15386 7.10895 4.20434 7.23094C4.25483 7.35293 4.28079 7.48366 4.28074 7.61569C4.2807 7.74771 4.25465 7.87843 4.20409 8.00039C4.15352 8.12234 4.07944 8.23315 3.98605 8.32647C3.89266 8.41979 3.78181 8.49381 3.65982 8.54429C3.53783 8.59477 3.40709 8.62073 3.27507 8.62069C3.00844 8.6206 2.75277 8.51459 2.56429 8.32599C2.37582 8.13739 2.26998 7.88165 2.27007 7.61502C2.27016 7.34839 2.37617 7.09271 2.56476 6.90424C2.75336 6.71576 3.00911 6.60993 3.27574 6.61002ZM3.61074 9.96002L4.68073 10.8732L6.29074 7.95002L8.97074 11.97H2.27074L3.61074 9.96002Z" fill="#EB5757"/>
</svg>
