<svg width="31" height="27" viewBox="0 0 31 27" fill="none" xmlns="http://www.w3.org/2000/svg">
<path d="M26.8672 17.5993C28.0129 18.7357 29.1399 19.8532 30.2575 20.999C30.4547 21.2056 30.6237 21.4967 30.6707 21.7784C30.7646 22.2762 30.4922 22.7176 30.0509 22.9242C29.6001 23.1402 29.1211 23.0557 28.7267 22.6706C27.8815 21.8348 27.0456 20.999 26.2192 20.1631C25.8999 19.8438 25.59 19.5057 25.2801 19.1864C21.4108 22.0508 16.3301 21.1868 13.5785 17.8623C10.8268 14.5283 10.9959 9.73878 13.9917 6.59269C16.9218 3.51234 21.7302 3.1179 25.158 5.64417C28.6046 8.16104 29.9382 13.4108 26.8672 17.5993ZM20.1336 6.24521C16.6964 6.23582 13.9072 8.98747 13.8884 12.4153C13.8696 15.815 16.6401 18.623 20.0491 18.6417C23.5145 18.6605 26.3037 15.9089 26.3319 12.4716C26.3507 9.04382 23.5708 6.2546 20.1336 6.24521Z" fill="#023A51"/>
<path d="M13.6428 24.7461C17.4463 24.7461 21.2592 24.7461 25.0627 24.7461C25.5792 24.7461 26.0018 25.0466 26.1521 25.5256C26.3117 25.9952 26.1521 26.5305 25.7107 26.784C25.4947 26.9155 25.2129 26.9813 24.95 26.9906C21.0526 27 17.1458 27 13.2484 27C9.54824 27 4.84806 27 1.14788 27C0.621971 27 0.218145 26.6995 0.0584924 26.2206C-0.0917685 25.7698 0.0491011 25.2345 0.462319 24.9809C0.68771 24.84 0.978841 24.7649 1.25119 24.7555C5.05467 24.7461 9.84876 24.7461 13.6428 24.7461Z" fill="#4682B4"/>
<path d="M13.1646 0C16.8272 0 20.4992 0 24.1618 0C24.7722 0 25.2324 0.403826 25.3169 1.00487C25.392 1.512 25.0446 2.02852 24.528 2.18818C24.3966 2.22574 24.2557 2.23513 24.1148 2.23513C16.8178 2.23513 8.52073 2.23513 1.21429 2.23513C0.500555 2.23513 0.012207 1.76557 0.012207 1.09878C0.0215983 0.450783 0.519338 0 1.23308 0C4.87691 0 9.52073 0 13.1646 0Z" fill="#4682B4"/>
<path d="M7.37902 8.4334C5.63224 8.4334 2.88545 8.4334 1.14806 8.4334C0.593972 8.4334 0.105624 8.02958 0.0304939 7.51306C-0.0634193 6.94019 0.274668 6.39549 0.828755 6.23584C0.950842 6.19827 1.08232 6.19827 1.2138 6.19827C4.67919 6.19827 5.74141 6.19827 9.2068 6.19827C9.91115 6.19827 10.4277 6.68662 10.4183 7.33462C10.4089 7.97323 9.90176 8.4428 9.22558 8.45219C7.46941 8.4334 9.1258 8.4334 7.37902 8.4334Z" fill="#023A51"/>
<path d="M6.05521 12.3777C7.77382 12.3777 6.09864 12.3777 7.81725 12.3777C8.53099 12.3777 9.03812 12.8473 9.04751 13.4953C9.04751 14.1433 8.54038 14.6222 7.83603 14.6222C4.38003 14.6222 4.68848 14.6222 1.23248 14.6222C0.518736 14.6222 0.0209961 14.1621 0.0209961 13.5047C0.0209961 12.8379 0.509344 12.3777 1.22308 12.3777C2.95109 12.3777 4.32721 12.3777 6.05521 12.3777Z" fill="#023A51"/>
<path d="M7.45404 18.5666C9.16326 18.5666 7.4693 18.5666 9.17852 18.5666C9.89226 18.5666 10.3994 19.0362 10.4088 19.6842C10.4088 20.3322 9.90165 20.8112 9.1973 20.8112C5.7413 20.8112 4.68848 20.8112 1.23248 20.8112C0.518736 20.8112 0.0209961 20.351 0.0209961 19.6936C0.0209961 19.0268 0.509344 18.5666 1.22308 18.5666C2.96987 18.5573 5.70726 18.5666 7.45404 18.5666Z" fill="#023A51"/>
</svg>
