<svg width="23" height="27" viewBox="0 0 23 27" fill="none" xmlns="http://www.w3.org/2000/svg">
<path d="M14.0797 0.200012H3.35969C2.64891 0.200012 1.96724 0.482368 1.46464 0.984966C0.962044 1.48756 0.679688 2.16923 0.679688 2.88001V24.32C0.679688 25.0308 0.962044 25.7125 1.46464 26.2151C1.96724 26.7177 2.64891 27 3.35969 27H19.4397C20.1505 27 20.8321 26.7177 21.3347 26.2151C21.8373 25.7125 22.1197 25.0308 22.1197 24.32V8.24001L14.0797 0.200012ZM8.04701 19.2146C7.63295 19.6032 7.02191 19.7774 6.31037 19.7774C6.1724 19.7789 6.0345 19.7708 5.89765 19.7533V21.6641H4.69969V16.3899C5.24032 16.3092 5.78659 16.2725 6.33315 16.28C7.07953 16.28 7.61017 16.4221 7.96795 16.7075C8.30831 16.9782 8.53879 17.4217 8.53879 17.9443C8.53745 18.4696 8.36325 18.9131 8.04701 19.2146ZM13.1484 21.0303C12.5856 21.498 11.7293 21.7204 10.6828 21.7204C10.0557 21.7204 9.61213 21.6802 9.31063 21.64V16.3912C9.85145 16.3123 10.3976 16.2751 10.9441 16.28C11.9585 16.28 12.6177 16.4622 13.1323 16.8509C13.6884 17.2636 14.0368 17.9215 14.0368 18.8662C14.0368 19.8886 13.6629 20.5948 13.1484 21.0303ZM18.0997 17.3118H16.0468V18.5326H17.9657V19.5161H16.0468V21.6655H14.8328V16.3202H18.0997V17.3118ZM14.0797 9.58001H12.7397V2.88001L19.4397 9.58001H14.0797Z" fill="#EB5757"/>
</svg>
