<svg width="22" height="22" viewBox="0 0 22 22" fill="none" xmlns="http://www.w3.org/2000/svg">
<path d="M21.8807 19.9397C22.0398 20.1188 22.0398 20.288 21.8807 20.4473L20.4196 21.9104C20.3599 21.9701 20.2804 22 20.181 22C20.0816 22 20.0021 21.9701 19.9425 21.9104L15.4696 17.4315C14.4756 18.1879 13.3623 18.7353 12.1298 19.0737C10.8973 19.4122 9.5753 19.4719 8.16386 19.2529C7.11024 19.0937 6.1262 18.7652 5.21175 18.2675C4.29729 17.7699 3.47229 17.1627 2.73675 16.4461C2.0012 15.7295 1.41476 14.8834 0.97741 13.908C0.54006 12.9326 0.241867 11.9373 0.0828313 10.922C-0.115964 9.34942 0.0430723 7.85643 0.55994 6.44307C1.07681 5.02971 1.84217 3.82537 2.85602 2.83004C3.86988 1.83472 5.07259 1.07827 6.46416 0.5607C7.85572 0.0431308 9.34669 -0.116121 10.937 0.0829438C11.9907 0.222289 12.9846 0.520887 13.919 0.978736C14.8533 1.43659 15.6883 2.02383 16.4238 2.74046C17.1593 3.4571 17.7756 4.27326 18.2726 5.18896C18.7696 6.10466 19.0976 7.09998 19.2566 8.17494C19.4753 9.54848 19.4157 10.8524 19.0777 12.0866C18.7398 13.3208 18.1931 14.4554 17.4377 15.4906L21.8807 19.9397ZM9.68464 16.6252C10.6389 16.6252 11.5334 16.4461 12.3684 16.0878C13.2033 15.7295 13.9389 15.2318 14.575 14.5948C15.2111 13.9578 15.7081 13.2212 16.066 12.3852C16.4238 11.5491 16.6027 10.6533 16.6027 9.69778C16.6027 8.74227 16.4238 7.84648 16.066 7.01041C15.7081 6.17433 15.2111 5.43779 14.575 4.80078C13.9389 4.16378 13.2033 3.66611 12.3684 3.3078C11.5334 2.94948 10.6389 2.77032 9.68464 2.77032C8.73042 2.77032 7.83584 2.94948 7.0009 3.3078C6.16596 3.66611 5.44036 4.16378 4.8241 4.80078C4.20783 5.43779 3.71084 6.17433 3.33313 7.01041C2.95542 7.84648 2.77651 8.74227 2.79639 9.69778C2.81627 10.6533 2.99518 11.5491 3.33313 12.3852C3.67108 13.2212 4.16807 13.9578 4.8241 14.5948C5.48012 15.2318 6.20572 15.7295 7.0009 16.0878C7.79608 16.4461 8.69066 16.6252 9.68464 16.6252Z" fill="#4682B4"/>
</svg>
