<svg width="27" height="26" viewBox="0 0 27 26" fill="none" xmlns="http://www.w3.org/2000/svg">
<path d="M20.3972 25H6.54206C5.07221 25 3.66257 24.4161 2.62323 23.3768C1.58389 22.3374 1 20.9278 1 19.4579V10.7403C0.99998 9.78735 1.24567 8.85051 1.71336 8.02023C2.18104 7.18995 2.85491 6.4943 3.66989 6.00044L10.5975 1.80233C11.4636 1.27749 12.4569 1 13.4696 1C14.4823 1 15.4757 1.27749 16.3418 1.80233L23.2694 6.00044C24.0842 6.49418 24.7579 7.18961 25.2256 8.01963C25.6932 8.84964 25.939 9.7862 25.9393 10.7389V19.4579C25.9393 20.9278 25.3554 22.3374 24.316 23.3768C23.2767 24.4161 21.8671 25 20.3972 25Z" stroke="#4682B4" stroke-width="2" stroke-linecap="round" stroke-linejoin="round"/>
<path d="M9.31311 19.4579H17.6262" stroke="#4682B4" stroke-width="2" stroke-linecap="round" stroke-linejoin="round"/>
</svg>
