<svg width="385" height="105" viewBox="0 0 385 105" fill="none" xmlns="http://www.w3.org/2000/svg">
<path d="M87.6531 99.8999C86.5886 99.3312 85.6661 98.4781 85.0983 97.4118C84.4596 96.3455 84.1758 95.2081 84.1758 93.8575C84.1758 92.5068 84.4596 91.3694 85.0983 90.3031C85.737 89.2368 86.5886 88.4549 87.6531 87.8151C88.7176 87.2464 89.995 86.891 91.3434 86.891C92.6918 86.891 93.9692 87.1753 95.0337 87.8151C96.0982 88.3838 97.0207 89.2368 97.5885 90.3031C98.2272 91.3694 98.511 92.5068 98.511 93.8575C98.511 95.2081 98.2272 96.3455 97.5885 97.4118C96.9498 98.4781 96.0982 99.2601 95.0337 99.8999C93.9692 100.469 92.6918 100.824 91.3434 100.824C89.995 100.753 88.7886 100.469 87.6531 99.8999ZM93.7563 97.9805C94.4659 97.554 95.0337 96.9853 95.4595 96.2744C95.8853 95.5636 96.0982 94.7105 96.0982 93.8575C96.0982 93.0044 95.8853 92.1514 95.4595 91.4405C95.0337 90.7297 94.4659 90.161 93.7563 89.7344C93.0466 89.3079 92.266 89.1657 91.3434 89.1657C90.4208 89.1657 89.6402 89.379 88.9305 89.7344C88.2209 90.0899 87.6531 90.7297 87.2273 91.4405C86.8015 92.1514 86.5886 93.0044 86.5886 93.8575C86.5886 94.7105 86.8015 95.5636 87.2273 96.2744C87.6531 96.9853 88.2209 97.554 88.9305 97.9805C89.6402 98.407 90.4208 98.5492 91.3434 98.5492C92.266 98.5492 93.0466 98.3359 93.7563 97.9805Z" fill="white"/>
<path d="M115.969 98.4781V100.54H105.892V87.1042H115.685V89.1657H108.375V92.649H114.833V94.7105H108.375V98.407H115.969V98.4781Z" fill="white"/>
<path d="M127.181 100.54L124.414 96.6299C124.272 96.6299 124.13 96.6299 123.917 96.6299H120.865V100.54H118.382V87.1042H123.917C125.052 87.1042 126.117 87.3175 126.969 87.6729C127.82 88.0284 128.459 88.5971 128.956 89.3079C129.381 90.0188 129.665 90.8718 129.665 91.867C129.665 92.8623 129.452 93.7153 128.956 94.4973C128.459 95.2081 127.749 95.7768 126.827 96.1322L129.878 100.54H127.181ZM126.259 89.9477C125.691 89.5212 124.84 89.2368 123.775 89.2368H120.865V94.5683H123.775C124.84 94.5683 125.691 94.3551 126.259 93.8575C126.827 93.3599 127.11 92.7201 127.11 91.867C127.11 91.0851 126.827 90.3742 126.259 89.9477Z" fill="white"/>
<path d="M140.665 87.744C141.517 88.0994 142.155 88.6681 142.652 89.379C143.078 90.0899 143.362 90.9429 143.362 91.9381C143.362 92.9333 143.149 93.7864 142.652 94.4973C142.226 95.2081 141.517 95.7768 140.665 96.1322C139.813 96.4877 138.82 96.7009 137.614 96.7009H134.562V100.54H132.078V87.1042H137.614C138.749 87.1753 139.813 87.3175 140.665 87.744ZM139.955 93.9286C140.523 93.502 140.807 92.7912 140.807 91.9381C140.807 91.0851 140.523 90.4453 139.955 89.9477C139.388 89.4501 138.536 89.2368 137.472 89.2368H134.562V94.5683H137.472C138.607 94.5683 139.388 94.3551 139.955 93.9286Z" fill="white"/>
<path d="M150.671 87.1753H156.562C157.981 87.1753 159.258 87.4597 160.394 88.0284C161.529 88.597 162.381 89.379 162.949 90.3742C163.587 91.3694 163.871 92.5779 163.871 93.8575C163.871 95.137 163.587 96.3455 162.949 97.3407C162.31 98.3359 161.458 99.1179 160.394 99.6866C159.258 100.255 157.981 100.54 156.562 100.54H150.671V87.1753ZM156.42 98.4781C157.413 98.4781 158.265 98.2648 159.045 97.9094C159.826 97.554 160.394 96.9853 160.749 96.2744C161.174 95.5636 161.387 94.7816 161.387 93.8575C161.387 92.9333 161.174 92.1514 160.749 91.4405C160.323 90.7297 159.755 90.232 159.045 89.8055C158.336 89.379 157.413 89.2368 156.42 89.2368H153.155V98.407H156.42V98.4781Z" fill="white"/>
<path d="M174.658 97.4829H167.916L166.568 100.611H164.013L170.045 87.1753H172.529L178.561 100.611H176.007L174.658 97.4829ZM173.878 95.4925L171.323 89.5923L168.839 95.4925H173.878Z" fill="white"/>
<path d="M187.503 99.8998C186.439 99.3311 185.587 98.4781 184.948 97.4118C184.31 96.3455 184.026 95.2081 184.026 93.8575C184.026 92.5068 184.31 91.3694 184.948 90.3031C185.587 89.2368 186.439 88.4549 187.503 87.8151C188.568 87.1753 189.845 86.891 191.193 86.891C192.258 86.891 193.322 87.1042 194.174 87.4597C195.096 87.8151 195.877 88.3838 196.445 89.0947L194.813 90.5875C193.819 89.5212 192.613 89.0236 191.193 89.0236C190.271 89.0236 189.419 89.2368 188.709 89.5923C188 90.0188 187.432 90.5875 187.006 91.2983C186.58 92.0092 186.368 92.7912 186.368 93.7153C186.368 94.6394 186.58 95.4214 187.006 96.1322C187.432 96.8431 188 97.4118 188.709 97.8383C189.419 98.2649 190.271 98.407 191.193 98.407C192.613 98.407 193.819 97.9094 194.813 96.8431L196.445 98.407C195.806 99.1179 195.025 99.6866 194.103 100.042C193.18 100.397 192.187 100.611 191.051 100.611C189.845 100.753 188.638 100.469 187.503 99.8998Z" fill="white"/>
<path d="M201.626 99.8999C200.561 99.3312 199.638 98.4781 199.071 97.4118C198.432 96.3455 198.148 95.2081 198.148 93.8575C198.148 92.5068 198.432 91.3694 199.071 90.3031C199.709 89.2368 200.561 88.4549 201.626 87.8151C202.69 87.2464 203.967 86.891 205.316 86.891C206.664 86.891 207.942 87.1753 209.006 87.8151C210.071 88.3838 210.993 89.2368 211.561 90.3031C212.2 91.3694 212.483 92.5068 212.483 93.8575C212.483 95.2081 212.2 96.3455 211.561 97.4118C210.922 98.4781 210.071 99.2601 209.006 99.8999C207.942 100.469 206.664 100.824 205.316 100.824C203.967 100.824 202.69 100.469 201.626 99.8999ZM207.729 97.9805C208.438 97.554 209.006 96.9853 209.432 96.2744C209.858 95.5636 210.071 94.7105 210.071 93.8575C210.071 93.0044 209.858 92.1514 209.432 91.4405C209.006 90.7297 208.438 90.161 207.729 89.7344C207.019 89.3079 206.238 89.1657 205.316 89.1657C204.393 89.1657 203.613 89.379 202.903 89.7344C202.193 90.0899 201.626 90.7297 201.2 91.4405C200.774 92.1514 200.561 93.0044 200.561 93.8575C200.561 94.7105 200.774 95.5636 201.2 96.2744C201.626 96.9853 202.193 97.554 202.903 97.9805C203.613 98.407 204.393 98.5492 205.316 98.5492C206.238 98.5492 207.019 98.3359 207.729 97.9805Z" fill="white"/>
<path d="M227.528 87.1753V100.611H225.47L218.09 91.5116V100.611H215.606V87.1753H217.664L225.044 96.2744V87.1753H227.528Z" fill="white"/>
<path d="M232.709 100.326C231.715 100.042 231.006 99.6155 230.438 99.189L231.29 97.2696C231.857 97.6961 232.496 98.0516 233.348 98.3359C234.128 98.6203 234.98 98.7625 235.76 98.7625C236.754 98.7625 237.535 98.6203 237.96 98.2648C238.457 97.9805 238.67 97.554 238.67 96.9853C238.67 96.6299 238.528 96.2744 238.244 96.0612C237.96 95.7768 237.606 95.6346 237.18 95.4925C236.754 95.3503 236.186 95.2081 235.477 94.9949C234.483 94.7816 233.631 94.4972 232.993 94.284C232.354 94.0707 231.786 93.6442 231.361 93.1466C230.935 92.649 230.651 91.9381 230.651 91.014C230.651 90.3031 230.864 89.5923 231.29 89.0236C231.715 88.3838 232.283 87.9573 233.135 87.6018C233.915 87.2464 234.909 87.0331 236.115 87.0331C236.967 87.0331 237.748 87.1042 238.528 87.3175C239.309 87.5307 240.018 87.8151 240.586 88.1705L239.806 90.0899C239.238 89.7344 238.599 89.4501 237.96 89.3079C237.322 89.0947 236.683 89.0236 236.115 89.0236C235.122 89.0236 234.412 89.1657 233.915 89.5212C233.419 89.8766 233.206 90.3031 233.206 90.8718C233.206 91.2273 233.348 91.5827 233.631 91.796C233.915 92.0092 234.27 92.2225 234.696 92.3646C235.122 92.5068 235.69 92.649 236.399 92.8623C237.393 93.0755 238.244 93.3599 238.883 93.5731C239.522 93.8575 240.089 94.2129 240.515 94.7105C240.941 95.2081 241.225 95.919 241.225 96.772C241.225 97.4829 241.012 98.1938 240.586 98.7625C240.16 99.3312 239.593 99.8288 238.741 100.184C237.889 100.54 236.896 100.753 235.76 100.753C234.625 100.753 233.631 100.611 232.709 100.326Z" fill="white"/>
<path d="M246.476 89.2368H242.005V87.1042H253.36V89.2368H248.889V100.54H246.405V89.2368H246.476Z" fill="white"/>
<path d="M264.502 100.54L261.734 96.6299C261.592 96.6299 261.45 96.6299 261.237 96.6299H258.186V100.54H255.702V87.1042H261.237C262.373 87.1042 263.437 87.3175 264.289 87.6729C265.14 88.0284 265.779 88.5971 266.276 89.3079C266.702 90.0188 266.986 90.8718 266.986 91.867C266.986 92.8623 266.773 93.7153 266.276 94.4973C265.779 95.2081 265.07 95.7768 264.147 96.1322L267.199 100.54H264.502ZM263.579 89.9477C263.011 89.5212 262.16 89.2368 261.095 89.2368H258.186V94.5683H261.095C262.16 94.5683 263.011 94.3551 263.579 93.8575C264.147 93.3599 264.431 92.7201 264.431 91.867C264.431 91.0851 264.147 90.3742 263.579 89.9477Z" fill="white"/>
<path d="M271.598 99.189C270.534 98.1227 270.037 96.6299 270.037 94.7105V87.1042H272.521V94.5683C272.521 97.1985 273.656 98.5492 275.927 98.5492C278.198 98.5492 279.334 97.1985 279.334 94.5683V87.1042H281.818V94.7105C281.818 96.6299 281.321 98.1227 280.256 99.189C279.192 100.255 277.772 100.753 275.927 100.753C274.082 100.753 272.592 100.255 271.598 99.189Z" fill="white"/>
<path d="M288.205 99.8998C287.14 99.3311 286.289 98.4781 285.65 97.4118C285.011 96.3455 284.727 95.2081 284.727 93.8575C284.727 92.5068 285.011 91.3694 285.65 90.3031C286.289 89.2368 287.14 88.4549 288.205 87.8151C289.269 87.1753 290.547 86.891 291.895 86.891C292.959 86.891 294.024 87.1042 294.876 87.4597C295.798 87.8151 296.579 88.3838 297.146 89.0947L295.514 90.5875C294.521 89.5212 293.314 89.0236 291.895 89.0236C290.972 89.0236 290.121 89.2368 289.411 89.5923C288.701 90.0188 288.134 90.5875 287.708 91.2983C287.282 92.0092 287.069 92.7912 287.069 93.7153C287.069 94.6394 287.282 95.4214 287.708 96.1322C288.134 96.8431 288.701 97.4118 289.411 97.8383C290.121 98.2649 290.972 98.407 291.895 98.407C293.314 98.407 294.521 97.9094 295.514 96.8431L297.146 98.407C296.508 99.1179 295.727 99.6866 294.805 100.042C293.882 100.397 292.888 100.611 291.753 100.611C290.547 100.753 289.34 100.469 288.205 99.8998ZM289.198 104.52L289.624 103.383C290.05 103.596 290.476 103.667 290.901 103.667C291.611 103.667 291.895 103.454 291.895 102.957C291.895 102.743 291.824 102.601 291.611 102.53C291.469 102.388 291.185 102.388 290.83 102.388H290.263L290.759 100.397H292.037L291.753 101.464C292.321 101.535 292.747 101.677 293.03 101.961C293.314 102.246 293.456 102.601 293.456 103.028C293.456 103.596 293.243 104.023 292.747 104.378C292.25 104.734 291.611 104.876 290.83 104.876C290.334 104.947 289.695 104.805 289.198 104.52Z" fill="white"/>
<path d="M308.43 97.4829H301.688L300.34 100.611H297.785L303.817 87.1753H306.301L312.333 100.611H309.708L308.43 97.4829ZM305.662 85.8958C305.45 85.7536 305.166 85.6114 304.811 85.3271C304.598 85.1849 304.456 85.0427 304.314 84.9716C304.172 84.9005 304.03 84.8295 303.888 84.8295C303.604 84.8295 303.391 84.9005 303.25 85.1138C303.108 85.3271 302.966 85.6114 302.966 85.9668H301.617C301.617 85.1849 301.83 84.5451 302.185 84.1186C302.54 83.6921 303.037 83.4077 303.675 83.4077C303.959 83.4077 304.243 83.4788 304.527 83.621C304.74 83.7632 305.024 83.9764 305.379 84.1897C305.591 84.3318 305.733 84.474 305.875 84.5451C306.017 84.6162 306.159 84.6873 306.301 84.6873C306.585 84.6873 306.798 84.6162 306.94 84.4029C307.082 84.1897 307.224 83.9764 307.224 83.621H308.501C308.501 84.4029 308.288 84.9716 307.933 85.4692C307.579 85.8958 307.082 86.1801 306.443 86.1801C306.159 86.0379 305.875 85.9668 305.662 85.8958ZM307.579 95.4925L305.024 89.5923L302.54 95.4925H307.579Z" fill="white"/>
<path d="M316.875 99.8999C315.811 99.3312 314.888 98.4781 314.32 97.4118C313.682 96.3455 313.398 95.2081 313.398 93.8575C313.398 92.5068 313.682 91.3694 314.32 90.3031C314.959 89.2368 315.811 88.4549 316.875 87.8151C317.94 87.2464 319.217 86.891 320.565 86.891C321.914 86.891 323.191 87.1753 324.256 87.8151C325.32 88.3838 326.243 89.2368 326.81 90.3031C327.449 91.3694 327.733 92.5068 327.733 93.8575C327.733 95.2081 327.449 96.3455 326.81 97.4118C326.172 98.4781 325.32 99.2601 324.256 99.8999C323.191 100.469 321.914 100.824 320.565 100.824C319.217 100.824 317.94 100.469 316.875 99.8999ZM322.978 97.9805C323.688 97.554 324.256 96.9853 324.681 96.2744C325.107 95.5636 325.32 94.7105 325.32 93.8575C325.32 93.0044 325.107 92.1514 324.681 91.4405C324.256 90.7297 323.688 90.161 322.978 89.7344C322.269 89.3079 321.488 89.1657 320.565 89.1657C319.643 89.1657 318.862 89.379 318.152 89.7344C317.443 90.0899 316.875 90.7297 316.449 91.4405C316.023 92.1514 315.811 93.0044 315.811 93.8575C315.811 94.7105 316.023 95.5636 316.449 96.2744C316.875 96.9853 317.443 97.554 318.152 97.9805C318.862 98.407 319.643 98.5492 320.565 98.5492C321.488 98.5492 322.269 98.3359 322.978 97.9805Z" fill="white"/>
<path d="M339.088 99.8998C338.023 99.3311 337.172 98.4781 336.533 97.4118C335.894 96.3455 335.61 95.2081 335.61 93.8575C335.61 92.5068 335.894 91.3694 336.533 90.3031C337.172 89.2368 338.023 88.4549 339.088 87.8151C340.152 87.1753 341.43 86.891 342.778 86.891C343.842 86.891 344.907 87.1042 345.759 87.4597C346.681 87.8151 347.462 88.3838 348.03 89.0947L346.397 90.5875C345.404 89.5212 344.197 89.0236 342.778 89.0236C341.855 89.0236 341.004 89.2368 340.294 89.5923C339.584 90.0188 339.017 90.5875 338.591 91.2983C338.165 92.0092 337.952 92.7912 337.952 93.7153C337.952 94.6394 338.165 95.4214 338.591 96.1322C339.017 96.8431 339.584 97.4118 340.294 97.8383C341.004 98.2649 341.855 98.407 342.778 98.407C344.197 98.407 345.404 97.9094 346.397 96.8431L348.03 98.407C347.391 99.1179 346.61 99.6866 345.688 100.042C344.765 100.397 343.772 100.611 342.636 100.611C341.43 100.753 340.152 100.469 339.088 99.8998Z" fill="white"/>
<path d="M350.017 87.1753H352.5V100.611H350.017V87.1753Z" fill="white"/>
<path d="M367.829 87.1753L362.01 100.611H359.526L353.636 87.1753H356.332L360.803 97.554L365.274 87.1753H367.829Z" fill="white"/>
<path d="M368.823 87.1753H371.307V100.611H368.823V87.1753Z" fill="white"/>
<path d="M374.5 87.1753H376.984V98.4781H384.009V100.611H374.5V87.1753Z" fill="white"/>
<path d="M337.952 13.7427C349.165 27.4624 360.307 41.2533 371.52 54.973C371.591 55.0441 371.661 55.1152 371.661 55.1863C371.732 55.1863 371.945 55.5417 372.016 55.5417V55.0441C372.016 55.0441 372.016 54.12 372.087 53.6224C372.087 40.3291 372.087 27.0359 372.087 13.7427C375.778 13.7427 379.539 13.7427 383.229 13.7427C383.229 13.8137 383.229 13.8848 383.3 13.8848C383.3 14.3113 383.229 14.6668 383.229 15.0933C383.229 34.7844 383.229 54.4043 383.229 74.0954C383.229 74.5219 383.229 74.8773 383.229 75.3038C380.461 75.3038 377.694 75.3038 374.926 75.3038C374.145 75.3038 373.72 75.0906 373.223 74.5219C367.191 67.0578 361.087 59.5937 355.055 52.1295C350.23 46.1582 345.333 40.1869 340.507 34.2157C340.365 34.0024 340.152 33.8602 340.01 33.718C340.01 33.718 339.939 33.7181 339.939 33.647C339.939 33.647 339.868 33.647 339.868 33.718C339.868 34.0735 339.797 34.4289 339.797 34.8554C339.797 48.2908 339.797 61.7973 339.797 75.2327C336.107 75.2327 332.346 75.2327 328.656 75.2327C328.656 68.4084 328.656 61.5841 328.656 54.7597C328.656 41.04 328.656 27.3202 328.656 13.6005C331.707 13.7427 334.83 13.7427 337.952 13.7427Z" fill="white"/>
<path d="M291.469 12.9607C298.85 12.7474 305.521 14.5957 311.482 18.7187C318.933 23.837 323.333 31.0167 324.469 39.9737C325.604 48.5041 323.972 56.5369 318.649 63.5745C313.682 70.1856 306.94 74.0953 298.85 75.6593C296.153 76.1569 293.385 76.5834 290.689 76.4412C278.198 75.9436 265.85 70.2567 260.315 56.0393C258.825 52.2717 258.257 48.2908 258.399 44.2389C258.683 31.9409 264.218 22.7707 274.934 16.8705C279.973 14.027 285.011 12.9607 291.469 12.9607ZM313.185 44.5943C313.895 34.1446 305.592 22.9128 291.682 22.9128C278.908 22.9128 270.179 32.1541 269.895 43.8124C269.54 57.8165 279.973 66.3469 291.611 66.2758C305.45 66.2758 313.824 55.1863 313.185 44.5943Z" fill="white"/>
<path d="M201.768 13.8137C201.768 16.9416 201.768 20.0694 201.768 23.3394C190.626 23.3394 179.484 23.3394 168.271 23.3394C168.271 28.6709 168.271 33.9313 168.271 39.2628C168.626 39.3339 168.91 39.4761 169.265 39.4761C175.297 39.4761 181.329 39.4761 187.361 39.4761C190.839 39.4761 194.245 39.4761 197.722 39.405C197.793 39.405 197.864 39.4761 197.864 39.4761C197.864 42.6039 197.864 45.7317 197.864 48.7884C197.793 48.7884 197.722 48.7884 197.722 48.8595C197.58 48.8595 197.439 48.7884 197.297 48.7884C187.858 48.7884 178.42 48.7884 168.981 48.7884C168.768 48.7884 168.484 48.9306 168.271 49.0017C168.271 54.5465 168.271 60.0912 168.271 65.7071C168.626 65.7782 168.981 65.9204 169.336 65.9204C180.549 65.9204 191.761 65.9204 202.974 65.9204C202.974 69.0482 202.974 72.176 202.974 75.3749C202.832 75.3749 202.69 75.446 202.548 75.446C187.29 75.446 172.104 75.446 156.846 75.446C156.846 71.0386 156.846 66.5601 156.846 62.1528C156.846 46.0161 156.846 29.9504 156.846 13.8137C165.575 13.8137 174.232 13.8137 182.961 13.8137C189.206 13.7426 195.522 13.8137 201.768 13.8137Z" fill="white"/>
<path d="M113.556 12.9607C119.801 13.4583 125.762 14.88 131.156 18.2922C129.949 21.2779 128.743 24.1924 127.537 27.1781C124.13 25.2587 120.653 23.837 116.963 23.055C112.35 22.1309 107.808 21.9176 103.266 23.3394C100.002 24.3346 97.7306 26.3961 97.1628 29.9504C96.879 31.9409 97.5886 33.718 99.0789 35.1398C100.64 36.5615 102.556 37.4856 104.614 37.9832C109.227 39.2628 113.84 40.4002 118.382 41.6798C122.001 42.675 125.478 43.9545 128.459 46.4426C132.93 50.068 134.207 54.8308 133.498 60.2334C132.504 67.9819 127.466 72.3182 120.44 74.593C117.814 75.446 114.975 75.9436 112.208 76.228C104.259 77.0099 96.6661 75.5171 89.4275 72.176C87.8662 71.4651 86.4469 70.3988 85.0276 69.4747C84.8147 69.3325 84.5308 68.7638 84.6727 68.5506C85.8792 65.7782 87.0856 63.0058 88.363 60.1623C91.4145 62.5082 94.679 64.2143 98.2983 65.2095C100.853 65.9204 103.479 66.3469 106.105 66.7734C109.795 67.3421 113.414 66.9156 116.892 65.7071C119.517 64.783 121.646 63.2191 122.285 60.2334C122.782 57.8876 122.143 55.8971 120.369 54.2621C118.24 52.3428 115.543 51.6319 112.846 50.85C107.95 49.4993 102.982 48.1487 98.0144 46.7269C94.75 45.8028 91.9823 44.0967 89.5694 41.6798C87.1566 39.1917 86.0211 36.2061 85.8082 32.865C85.1695 22.6996 91.5565 16.6572 100.001 14.2403C102.414 13.5294 104.898 13.3872 107.382 12.9607C109.511 12.9607 111.498 12.9607 113.556 12.9607Z" fill="white"/>
<path d="M260.244 23.1261C257.76 25.472 255.347 27.7467 252.934 30.0215C243.638 19.5718 227.173 21.4911 219.793 29.6661C212.341 37.9832 212.554 52.0584 220.432 60.0202C228.025 67.7686 243.78 69.2614 252.934 58.9538C255.347 61.2997 257.76 63.5745 260.244 65.9204C258.541 67.9108 256.624 69.6169 254.495 71.0386C250.096 73.8821 245.27 75.5171 240.089 76.0147C238.315 76.1569 236.612 76.4412 234.838 76.3701C222.277 75.7303 209.999 69.8301 204.748 55.6839C203.754 52.9826 203.045 50.1391 202.974 47.2245C202.903 44.8787 202.69 42.5328 203.045 40.258C204.18 32.4385 207.516 25.7563 213.548 20.6381C218.373 16.515 223.98 14.027 230.225 13.245C238.812 12.1787 247.044 13.174 254.425 18.0079C256.624 19.4296 258.541 21.0646 260.244 23.1261Z" fill="white"/>
<path d="M36.6988 0.947021C43.5116 1.37354 50.1115 3.00854 56.4275 5.49658C61.3242 7.41592 66.008 9.83287 70.4079 12.6763C70.6918 12.8896 70.9757 13.0318 71.2595 13.245C69.4144 16.0174 67.6402 18.7187 65.8661 21.42C63.5242 20.1405 61.3242 18.7898 58.9823 17.5813C52.2405 14.027 45.1438 11.61 37.5504 10.8281C31.5892 10.1883 25.77 10.4727 20.1636 13.0318C12.6412 16.4439 8.80896 23.4105 9.94442 31.9409C10.867 39.1917 14.3443 45.3052 18.7443 50.9211C23.3571 56.8213 28.9635 61.5841 35.2795 65.7071C35.5633 65.9204 35.8472 66.0625 36.202 66.3469C34.4279 69.0482 32.7247 71.6073 30.8796 74.3797C29.3183 73.3134 27.828 72.3182 26.3377 71.323C17.4669 64.9252 10.0864 57.1056 4.97676 47.3667C3.13163 43.8124 1.78327 39.9737 0.860705 36.0639C0.0800728 32.7228 -0.203793 29.3107 0.151039 25.8985C1.21554 16.515 5.89933 9.54853 14.3443 5.14114C18.0346 3.00854 22.0087 1.72898 26.1958 1.37354C27.2603 1.30246 28.3248 1.0892 29.3893 0.947021C31.8021 0.947021 34.2859 0.947021 36.6988 0.947021Z" fill="white"/>
<path d="M33.8606 102.53C24.9898 102.032 16.6158 99.5444 8.59654 95.7057C6.46754 94.7105 4.40951 93.502 2.28052 92.3647C3.77082 89.5212 5.26111 86.7488 6.75141 83.9053C7.74494 84.474 8.73847 84.9716 9.66104 85.4692C15.2674 88.526 21.2286 90.6586 27.4736 92.0092C29.8865 92.5068 32.3703 92.649 34.8542 92.9333C39.9638 93.4309 44.9314 92.649 49.6152 90.5875C57.7764 87.0331 61.8215 79.3558 60.1892 70.541C58.9828 63.7167 55.6474 57.9586 51.3184 52.7693C46.1378 46.3715 39.7509 41.3954 32.6542 37.3435C32.3703 37.2013 32.1574 37.0591 31.8736 36.9169C31.8026 36.9169 31.8026 36.8459 31.6607 36.7037C33.151 33.8602 34.6413 31.0167 36.2025 28.1022C36.2735 28.1022 36.4154 28.1022 36.4864 28.1733C47.6281 34.2867 56.9957 42.3906 63.6666 53.338C66.2214 57.5321 68.2084 61.9395 69.2729 66.7734C71.0471 74.3797 70.6213 81.7727 66.5052 88.6681C62.673 95.0659 56.9248 98.9046 49.8991 100.895C46.7056 101.748 43.3701 102.032 40.1057 102.601C38.0477 102.53 35.9896 102.53 33.8606 102.53Z" fill="white"/>
<path d="M148.117 75.3749C144.426 75.3749 140.665 75.3749 136.975 75.3749C136.975 70.541 136.975 65.7782 136.975 60.9443C136.975 45.2341 136.975 29.5239 136.975 13.7426C140.736 13.7426 144.426 13.7426 148.188 13.7426C148.188 27.1781 148.188 40.6845 148.188 54.12C148.117 61.2286 148.117 68.3373 148.117 75.3749Z" fill="white"/>
</svg>
